<?xml version="1.0" encoding="UTF-8"?>
<svg version="1.1" viewBox="0 0 2048 1713" width="656" height="549" xmlns="http://www.w3.org/2000/svg">
<path transform="translate(1335,90)" d="m0 0 11 1 13 5 11 6 13 10 20 18 16 17 10 11 9 11 8 9 11 14 12 15 28 38 16 23 29 43 16 25 15 24 17 28 15 26 10 17 14 25 14 26 12 22 18 36 13 28 15 34 14 37 8 25 6 24 3 20v18l-3 13-6 10-8 7-8 4-7 1v2l4 2 10 8 16 15 21 21 7 8 9 10 20 25 14 19 20 30 12 20 10 18 8 15 14 31 11 28 10 32 8 34 5 33 2 24v39l-3 29-4 24-7 27-5 12-7 9-10 8-11 5-13 4-12 2-21 1-21-2-22-4-25-7-22-8-24-11-21-12-19-13-11-9-13-11-18-18-11-14-10-14-9-16-9-19-7-21-5-24-2-17v-43l4-36 7-37 3-12v-4l-7 10-9 15-11 23-7 21-4 18-3 26-1 18v17l3 29 4 18 6 17 12 25 14 23 14 20 13 18 10 13 27 36 13 18 17 26 13 22 13 25 8 19 7 19 6 21 5 26 3 28v51l-4 36-5 25-5 13-4 5-5 3h-9l-9-4-6-9-6-14-8-24-17-59-13-43-12-34-14-34-13-28-8-16-10-18-9-12-9-10-8-8-20-15-18-13-19-14-17-13-11-10-8-7-9-10-13-17-11-17-12-22-9-20-9-23-9-30-7-29-1-6-1 41-1 12-4 10-5 6-5 2h-9l-11-4-10-7-10-8-28-24-10-9-22-18-18-14-20-14-19-12-16-9-22-11-24-9-23-6-19-3-12-1h-40l-27 3-28 5-31 7-36 8-7 1h-12l-7-3-5-5-3-7 1-8 5-10 10-13 10-14 11-23 8-24 6-26-1 1-10 19-13 26-16 27-8 12-10 14-8 10-12 14-15 15-14 11-14 10-17 10-25 12-24 8-23 5-26 3h-14l-19-2-23-5-20-8-15-8-11-9-10-9-7-7-13-17-14-21-11-17-10-14-11-13-11-8-10-5-14-3h-13l-15 3-13 5-14 7-19 12-23 16-17 12-24 16-20 12-27 14-21 8-21 5-14 2h-15l-19-3-15-5-15-8-11-9-9-9-10-15-6-14-1-4v-13l4-7 8-5h17l25 3 22 1 23-2 25-6 25-10 20-11 19-13 4-2v-2l-4 1h-54l-4-5 4-45 3-54v-10l-2-9-3-5v-2l-5-2-2-1h-24l-7 1-4 1v3l5 2-1 3-6 1-20 1 21 1 1 4-2 7-2 1-31 2 26 1 5 1v3l-5 1 1 4h2v2l-8 2-6 1 12 2 2 1-1 4-19 1-7 1 13 1 2 2-6 1 10 5 3 3 3 2-2 3-9 2 9 3-1 3-5 2 6 2-2 2-23 1 18 1 7 1-1 5-19 2 16 2 3 2v2l-2 1-25 2 17 1 10 3 1 4-3 5-3 1-14 1 19 3-3 3-8 2 11 2-1 4-5 2-13 1h-53l-3-2-1-6 4-55 4-75 2-53 1-47 1-25 3-2h56l14 1 3 3v6l-7 2-31 1 28 1 9 1-1 2-16 1-31 1 45 2 3 2-1 5-6 2 6 2v5l-1 1-18 2 17 2 1 5-9 1 8 3v4l-7 2 5 1v3l-7 1 8 1 1 5-19 1 18 1 1 4-3 3 1 3-5 1h8l11-9 12-6 13-4 24 2-1 2h-12l18 1h11l-2 2 19 1 10 4 3 3h-7v2h7l5 2 7 9v1l-19 2 17 2 2 4-1 1 5 2-1 3-13 1 16 2v3l-12 2 12 1 1 5-5 1-14 1 16 1 4 2v12l-10 1v1l9 2-1 4 1 4-43 2 30 1 12 2v5l-9 1 9 3-1 5-7 2 7 1 1 4-1 4-3 2 3 2-1 5v2l1 2-1 6-9 2 8 3-1 4-11 2 11 2 1 5v2 7l-1 2-10 2 8 2 2 1v12l-2 6h2l5-5 11-12 8-10 13-16 11-14 18-21 1-3 2-19 3-14 6-17 9-15 9-11 8-7 11-8 19-9 19-5 6-1h18l20 2 11 2 5 3 12 3 2 4 10 2 1 4 1 2-13 1 17 2 8 3 4 6-5 2-26 2-2 1 33 2 7 1 3 4 3 13-5 2-13 1 15 3 6 3v4l10-5 7-7 9-14 8-17 12-29 9-17 13-16 10-8 8-5 24-9 15-5 4-1-3-10-4-11-1-5v-33l3-26 4-18 4-9 4-6 6-4 3-1h8l9 4 8 9 12 22 9 16 8 7 7-1 10-7 18-18 7-8 7-7 7-8 9-9 15-10 19-10 31-13 34-12 34-11 29-7 28-5 36-4 19-1h33l28 2 31 4 30 6 28 8 27 10 24 11 23 13 18 12 12 9 11 9 12 11 5 4v2l3 1 7 8 10 11 11 16 15 24 16 26 14 20 13 16 12 13 21 21 8 7 14 12 14 11 6 5-6-7-10-10-3-2v-2l-4-2-9-9-7-8-10-10-9-11-12-13-11-14-10-12-26-36-14-22-9-15-14-25-16-32-12-28-11-29-15-46-20-65-15-50-14-50-9-37-7-38-2-16-1-20 2-17 4-11 4-6 7-7 7-3z" fill="#F5A40B"/>
<path transform="translate(763,708)" d="m0 0h51l24 4 15 5 11 6 12 11 7 9 6 10 7 19 3 13 2 13v28l-4 22-6 18-9 17-8 10-9 9-14 8-12 4-5 1h-19l-20-4-21-9-7-2-2 79-1 19-3 1h-34l-39-1-4-4 2-2v-6l4-4-16-2v-2l14-2h4l-3-5-6-3-1-6 9-2 2-3-11-3-2-2 13-1v-3h-10l-3-2 10-2h4v-3h-9l-2-2 2-2 9-2v-2l-5-1 1-2 4-1v-2l-11-1-2-2 11-1 3-1v-2l-15-1-1-2 2-1 14-2-14-1v-2l14-3v-3l-22-2 1-2 21-2-6-4 2-2 5-1v-5-3h2l-1-4-8-1v-2l8-1 1-10 1-13-4-2v-3h4v-7l-8-2v-2l9-1-1-11-13-2v-2l14-2v-5l-12-2-1-3 13-3 1-6-8-1-1-3 9-1v-2l-18-1 2-2 16-1v-6l-4-1v-2l4-2v-19l1-11-4-1v-3l3-3h-14v-2l2-1 13-1-1-4-10-1 1-3h9v-2l-6 1-2-2 8-3v-2l-5-1 1-4 7-2 43-5z" fill="#FDFDFD"/>
<path transform="translate(1274,712)" d="m0 0h78l4 15 13 55 9 40 2 4 1-1 1-11 4-6-8-1v-1l9-2 1-3-6-2 1-5v-3l8-2 4-12-1-3-3-1v-3l7-3 2-5-9-1 2-2 6-1v-4l5-1 3-11 1-3h-8l1-2 8-1 4-13 2-7 2-4h68l2 1-1 7-10 27-15 38-15 39-22 58-19 50-11 27-8 14-5 6-10 2-4 2-3 9-4 3-14 5-8 2-9 1h-17l-26-2-6-2-5-5-2-1-2-6 5-2-3-6-5-3 1-2 4-1-1-9-1-8-2-12-8-3 1-2 8-2h6l7 3 27-1 13-1-2-5 9-3 1-3-8-1 2-2 10-1 1-10-5-1-2-4 6-1-2-9-1-5-1-4-4-13-3-8-2-6-7-2v-2l5-1-1-4 1-3-1-2-10-3v-1l9-1-2-4-9-1-2-1 1-3h8v-2l-5-2 4-2-2-5-2-9-3-2 1-1-1-8-1-2-12-1-3-2 2-1h12l-1-6-6-1-1-2 4-1v-4l-8-2 4-4 1-5-10-2 1-2 7-1-5-17v-2h-10l-2-2 10-1-4-14-6-1-1-3 5-1-2-6-1-5-8-1z" fill="#FDFDFD"/>
<path transform="translate(1169,635)" d="m0 0h35l18 2 21 5 2 33v19l-8 1-24-2-10-1-4 4-1 3-1 13h37l1 1v14l-2 41h-35l-2 64-2 46-1 32-2 1-72-1-1-3 1-3v-7l-3-3 3-1 1-5h-15l-3-2 13-1-1-3 6-3 1-3h-11l1-2 9-1v-6l1-3-9-2 3-3 6-2 1-5-7-2 2-2 5-1v-3l-9-2-8-1v-1l18-2v-2h-9l-6-1v-2l14-4-7-2-7-1 2-2 13-1 1-3h-8l-4-2 9-4-6-3 4-2 6-2v-6h-5l2-2h3l1-8-5-1v-2l4-2v-5l-3-3 3-1-1-8-17-1-14-4 1-2 13-1v-4l-9-1-1-3 10-2v-2l-6-2 2-2 5-1-2-8 1-5v-11l-4-2 2-5 2-1 24-1v-4l-2-3 3-5-1-10-15-5v-2l13-5 4-1v-2l-7-2v-3l8-2v-4l4-2 2-4h-6l2-3 9-3 1-4h-2l1-3 11-3 3-3 1-2z" fill="#FDFDFD"/>
<path transform="translate(503,784)" d="m0 0 2 1-4 11-2 15 1 16 4 12 6 9 7 4h17l9-2v-2h-16v-2l22-3 2-4h2l2-6 2-10 2-6h-6l-2-1v-2l8-2 1-11-9-2v-2l2-1v-4l9 3 21 9 14 4 6 1h16l14-3v14l-3 19-5 16-8 16-10 13-8 8-10 7-16 8-15 5-17 3h-21l-22-6-17-3-10-4-13-9-15-3 1-2 8-1-6-6-3-5v-2l-16-2 4-2h6v-2l-17-3v-2l14-1-3-9-3-2 2-4 12-14 14-15 7-7 8-7 13-10 10-6z" fill="#FDFDFD"/>
<path transform="translate(969,712)" d="m0 0h75l1 1v14l-4 81-1 92-1 9-1 1h-75l-2-2 2-20 3-28-1-9 2-10-4-1-1-4 2-2v-3l-3-2 7-2v-6l-4-1-1-3h2v-3l2-1 1-4h-3l-1-3 1-3-3-3 4-4h3v-4h-30l-3-2 33-2v-3l-9-3 4-4-2-1v-2l7-2 1-23-9-2-1-3 4-6h3l-4-4v-2l4-1 1-4 2-4-2-7-2-1v-3z" fill="#FDFDFD"/>
<path transform="translate(781,769)" d="m0 0h22l9 2 8 7 3 3v2l-3 1 1 6 7 3v3l-8 2 9 5 1 5-8 2 8 3v6l-9 3-3 3 9 3-1 5-5 2 3 2-6 9-8 4-7 2-13 1-7-4-8-10-4-12-1-5v-28l2-21 5-3z" fill="#F5A40B"/>
<path transform="translate(970,642)" d="m0 0h75v35l-1 13-2 1h-66l-15-1 1-2 9-1 1-28v-11l-10-3 2-2z" fill="#FDFDFD"/>
<path transform="translate(318,714)" d="m0 0" fill="#FDFDFD"/>
</svg>
